<mxfile host="app.diagrams.net" modified="2023-11-14T04:59:23.111Z" agent="Mozilla/5.0 (Windows NT 10.0; Win64; x64) AppleWebKit/537.36 (KHTML, like Gecko) Chrome/119.0.0.0 Safari/537.36" etag="WVYyQS8JqP6p8nCJIdXj" version="22.1.0" type="device">
  <diagram id="Ka57WYL8uHOhpwoZ9gLt" name="Страница — 1">
    <mxGraphModel dx="3093" dy="-307" grid="1" gridSize="10" guides="1" tooltips="1" connect="1" arrows="1" fold="1" page="1" pageScale="1" pageWidth="827" pageHeight="1169" math="0" shadow="0">
      <root>
        <mxCell id="0" />
        <mxCell id="1" parent="0" />
        <mxCell id="-9mjrlD3U77bwaLZREmP-149" value="" style="rounded=0;whiteSpace=wrap;html=1;" parent="1" vertex="1">
          <mxGeometry x="344" y="2190" width="140" height="80" as="geometry" />
        </mxCell>
        <mxCell id="-9mjrlD3U77bwaLZREmP-1" value="&lt;font style=&quot;font-size: 14px;&quot;&gt;Клиент&lt;/font&gt;" style="whiteSpace=wrap;html=1;" parent="1" vertex="1">
          <mxGeometry x="93" y="1940" width="120" height="60" as="geometry" />
        </mxCell>
        <mxCell id="-9mjrlD3U77bwaLZREmP-11" value="&lt;font style=&quot;font-size: 14px;&quot;&gt;Номер клиента&lt;/font&gt;" style="ellipse;whiteSpace=wrap;html=1;" parent="1" vertex="1">
          <mxGeometry x="-104" y="1940" width="140" height="60" as="geometry" />
        </mxCell>
        <mxCell id="-9mjrlD3U77bwaLZREmP-12" value="&lt;span style=&quot;font-size: 14px;&quot;&gt;ИНН&lt;/span&gt;" style="ellipse;whiteSpace=wrap;html=1;" parent="1" vertex="1">
          <mxGeometry x="-104" y="1240" width="140" height="60" as="geometry" />
        </mxCell>
        <mxCell id="-9mjrlD3U77bwaLZREmP-13" value="&lt;span style=&quot;font-size: 14px;&quot;&gt;Наименование&lt;/span&gt;" style="ellipse;whiteSpace=wrap;html=1;" parent="1" vertex="1">
          <mxGeometry x="-104" y="1320" width="140" height="60" as="geometry" />
        </mxCell>
        <mxCell id="-9mjrlD3U77bwaLZREmP-14" value="&lt;span style=&quot;font-size: 14px;&quot;&gt;Должностное лицо&lt;/span&gt;" style="ellipse;whiteSpace=wrap;html=1;" parent="1" vertex="1">
          <mxGeometry x="-104" y="1400" width="140" height="60" as="geometry" />
        </mxCell>
        <mxCell id="-9mjrlD3U77bwaLZREmP-15" value="&lt;span style=&quot;font-size: 14px;&quot;&gt;Контактная ифнормация&lt;/span&gt;" style="ellipse;whiteSpace=wrap;html=1;" parent="1" vertex="1">
          <mxGeometry x="-104" y="1480" width="140" height="60" as="geometry" />
        </mxCell>
        <mxCell id="-9mjrlD3U77bwaLZREmP-16" value="&lt;span style=&quot;font-size: 14px;&quot;&gt;Адрес доставки&lt;/span&gt;" style="ellipse;whiteSpace=wrap;html=1;" parent="1" vertex="1">
          <mxGeometry x="-104" y="1570" width="140" height="60" as="geometry" />
        </mxCell>
        <mxCell id="-9mjrlD3U77bwaLZREmP-17" value="&lt;span style=&quot;font-size: 14px;&quot;&gt;БИК&lt;/span&gt;" style="ellipse;whiteSpace=wrap;html=1;" parent="1" vertex="1">
          <mxGeometry x="-104" y="1750" width="140" height="60" as="geometry" />
        </mxCell>
        <mxCell id="-9mjrlD3U77bwaLZREmP-18" value="&lt;span style=&quot;font-size: 14px;&quot;&gt;Расчётный счёт&lt;/span&gt;" style="ellipse;whiteSpace=wrap;html=1;" parent="1" vertex="1">
          <mxGeometry x="-104" y="1660" width="140" height="60" as="geometry" />
        </mxCell>
        <mxCell id="-9mjrlD3U77bwaLZREmP-19" value="&lt;span style=&quot;font-size: 14px;&quot;&gt;Наименование&lt;br&gt;банка&lt;br&gt;&lt;/span&gt;" style="ellipse;whiteSpace=wrap;html=1;" parent="1" vertex="1">
          <mxGeometry x="-104" y="1850" width="140" height="60" as="geometry" />
        </mxCell>
        <mxCell id="-9mjrlD3U77bwaLZREmP-20" value="" style="endArrow=none;html=1;rounded=0;exitX=1;exitY=0.5;exitDx=0;exitDy=0;entryX=0.5;entryY=0;entryDx=0;entryDy=0;" parent="1" source="-9mjrlD3U77bwaLZREmP-19" target="-9mjrlD3U77bwaLZREmP-1" edge="1">
          <mxGeometry width="50" height="50" relative="1" as="geometry">
            <mxPoint x="896" y="1600" as="sourcePoint" />
            <mxPoint x="946" y="1550" as="targetPoint" />
          </mxGeometry>
        </mxCell>
        <mxCell id="-9mjrlD3U77bwaLZREmP-22" value="" style="endArrow=none;html=1;rounded=0;exitX=1;exitY=0.5;exitDx=0;exitDy=0;entryX=0.5;entryY=0;entryDx=0;entryDy=0;" parent="1" source="-9mjrlD3U77bwaLZREmP-17" target="-9mjrlD3U77bwaLZREmP-1" edge="1">
          <mxGeometry width="50" height="50" relative="1" as="geometry">
            <mxPoint x="126" y="1890" as="sourcePoint" />
            <mxPoint x="163" y="1950" as="targetPoint" />
          </mxGeometry>
        </mxCell>
        <mxCell id="-9mjrlD3U77bwaLZREmP-23" value="" style="endArrow=none;html=1;rounded=0;exitX=1;exitY=0.5;exitDx=0;exitDy=0;entryX=0.5;entryY=0;entryDx=0;entryDy=0;" parent="1" source="-9mjrlD3U77bwaLZREmP-18" target="-9mjrlD3U77bwaLZREmP-1" edge="1">
          <mxGeometry width="50" height="50" relative="1" as="geometry">
            <mxPoint x="126" y="1790" as="sourcePoint" />
            <mxPoint x="163" y="1950" as="targetPoint" />
          </mxGeometry>
        </mxCell>
        <mxCell id="-9mjrlD3U77bwaLZREmP-24" value="" style="endArrow=none;html=1;rounded=0;exitX=1;exitY=0.5;exitDx=0;exitDy=0;entryX=0.5;entryY=0;entryDx=0;entryDy=0;" parent="1" source="-9mjrlD3U77bwaLZREmP-16" target="-9mjrlD3U77bwaLZREmP-1" edge="1">
          <mxGeometry width="50" height="50" relative="1" as="geometry">
            <mxPoint x="126" y="1700" as="sourcePoint" />
            <mxPoint x="163" y="1950" as="targetPoint" />
          </mxGeometry>
        </mxCell>
        <mxCell id="-9mjrlD3U77bwaLZREmP-25" value="" style="endArrow=none;html=1;rounded=0;exitX=1;exitY=0.5;exitDx=0;exitDy=0;entryX=0.5;entryY=0;entryDx=0;entryDy=0;" parent="1" source="-9mjrlD3U77bwaLZREmP-15" target="-9mjrlD3U77bwaLZREmP-1" edge="1">
          <mxGeometry width="50" height="50" relative="1" as="geometry">
            <mxPoint x="126" y="1610" as="sourcePoint" />
            <mxPoint x="163" y="1950" as="targetPoint" />
          </mxGeometry>
        </mxCell>
        <mxCell id="-9mjrlD3U77bwaLZREmP-26" value="" style="endArrow=none;html=1;rounded=0;exitX=1;exitY=0.5;exitDx=0;exitDy=0;entryX=0.5;entryY=0;entryDx=0;entryDy=0;" parent="1" source="-9mjrlD3U77bwaLZREmP-14" target="-9mjrlD3U77bwaLZREmP-1" edge="1">
          <mxGeometry width="50" height="50" relative="1" as="geometry">
            <mxPoint x="126" y="1520" as="sourcePoint" />
            <mxPoint x="163" y="1950" as="targetPoint" />
          </mxGeometry>
        </mxCell>
        <mxCell id="-9mjrlD3U77bwaLZREmP-27" value="" style="endArrow=none;html=1;rounded=0;exitX=1;exitY=0.5;exitDx=0;exitDy=0;entryX=0.5;entryY=0;entryDx=0;entryDy=0;" parent="1" source="-9mjrlD3U77bwaLZREmP-13" target="-9mjrlD3U77bwaLZREmP-1" edge="1">
          <mxGeometry width="50" height="50" relative="1" as="geometry">
            <mxPoint x="126" y="1440" as="sourcePoint" />
            <mxPoint x="163" y="1950" as="targetPoint" />
          </mxGeometry>
        </mxCell>
        <mxCell id="-9mjrlD3U77bwaLZREmP-28" value="" style="endArrow=none;html=1;rounded=0;exitX=1;exitY=0.5;exitDx=0;exitDy=0;entryX=0.5;entryY=0;entryDx=0;entryDy=0;" parent="1" source="-9mjrlD3U77bwaLZREmP-12" target="-9mjrlD3U77bwaLZREmP-1" edge="1">
          <mxGeometry width="50" height="50" relative="1" as="geometry">
            <mxPoint x="126" y="1360" as="sourcePoint" />
            <mxPoint x="163" y="1950" as="targetPoint" />
          </mxGeometry>
        </mxCell>
        <mxCell id="-9mjrlD3U77bwaLZREmP-29" value="" style="endArrow=none;html=1;rounded=0;exitX=1;exitY=0.5;exitDx=0;exitDy=0;entryX=0;entryY=0.5;entryDx=0;entryDy=0;" parent="1" source="-9mjrlD3U77bwaLZREmP-11" target="-9mjrlD3U77bwaLZREmP-1" edge="1">
          <mxGeometry width="50" height="50" relative="1" as="geometry">
            <mxPoint x="126" y="1890" as="sourcePoint" />
            <mxPoint x="163" y="1950" as="targetPoint" />
          </mxGeometry>
        </mxCell>
        <mxCell id="-9mjrlD3U77bwaLZREmP-30" value="&lt;font style=&quot;font-size: 14px;&quot;&gt;Сотрудник&lt;br&gt;&lt;/font&gt;" style="whiteSpace=wrap;html=1;direction=east;flipH=1;flipV=0;" parent="1" vertex="1">
          <mxGeometry x="280" y="1940" width="120" height="60" as="geometry" />
        </mxCell>
        <mxCell id="-9mjrlD3U77bwaLZREmP-31" value="&lt;font style=&quot;font-size: 14px;&quot;&gt;Номер сотрудника&lt;/font&gt;" style="ellipse;whiteSpace=wrap;html=1;direction=east;flipH=1;flipV=0;" parent="1" vertex="1">
          <mxGeometry x="430" y="1810" width="140" height="60" as="geometry" />
        </mxCell>
        <mxCell id="-9mjrlD3U77bwaLZREmP-35" value="&lt;span style=&quot;font-size: 14px;&quot;&gt;Контактная ифнормация&lt;/span&gt;" style="ellipse;whiteSpace=wrap;html=1;direction=east;flipH=1;flipV=0;" parent="1" vertex="1">
          <mxGeometry x="430" y="1630" width="140" height="60" as="geometry" />
        </mxCell>
        <mxCell id="-9mjrlD3U77bwaLZREmP-37" value="&lt;span style=&quot;font-size: 14px;&quot;&gt;Должность&lt;/span&gt;" style="ellipse;whiteSpace=wrap;html=1;direction=east;flipH=1;flipV=0;" parent="1" vertex="1">
          <mxGeometry x="430" y="1540" width="140" height="60" as="geometry" />
        </mxCell>
        <mxCell id="-9mjrlD3U77bwaLZREmP-39" value="&lt;span style=&quot;font-size: 14px;&quot;&gt;ФИО&lt;br&gt;&lt;/span&gt;" style="ellipse;whiteSpace=wrap;html=1;direction=east;flipH=1;flipV=0;" parent="1" vertex="1">
          <mxGeometry x="430" y="1720" width="140" height="60" as="geometry" />
        </mxCell>
        <mxCell id="-9mjrlD3U77bwaLZREmP-40" value="" style="endArrow=none;html=1;rounded=0;exitX=0;exitY=0.5;exitDx=0;exitDy=0;entryX=0.5;entryY=0;entryDx=0;entryDy=0;" parent="1" source="-9mjrlD3U77bwaLZREmP-39" target="-9mjrlD3U77bwaLZREmP-30" edge="1">
          <mxGeometry width="50" height="50" relative="1" as="geometry">
            <mxPoint x="-520" y="1600" as="sourcePoint" />
            <mxPoint x="-570" y="1550" as="targetPoint" />
          </mxGeometry>
        </mxCell>
        <mxCell id="-9mjrlD3U77bwaLZREmP-41" value="" style="endArrow=none;html=1;rounded=0;exitX=0;exitY=0.5;exitDx=0;exitDy=0;entryX=0.5;entryY=0;entryDx=0;entryDy=0;" parent="1" source="-9mjrlD3U77bwaLZREmP-37" target="-9mjrlD3U77bwaLZREmP-30" edge="1">
          <mxGeometry width="50" height="50" relative="1" as="geometry">
            <mxPoint x="250" y="1890" as="sourcePoint" />
            <mxPoint x="213" y="1950" as="targetPoint" />
          </mxGeometry>
        </mxCell>
        <mxCell id="-9mjrlD3U77bwaLZREmP-44" value="" style="endArrow=none;html=1;rounded=0;exitX=0;exitY=0.5;exitDx=0;exitDy=0;entryX=0.5;entryY=0;entryDx=0;entryDy=0;" parent="1" source="-9mjrlD3U77bwaLZREmP-35" target="-9mjrlD3U77bwaLZREmP-30" edge="1">
          <mxGeometry width="50" height="50" relative="1" as="geometry">
            <mxPoint x="250" y="1610" as="sourcePoint" />
            <mxPoint x="213" y="1950" as="targetPoint" />
          </mxGeometry>
        </mxCell>
        <mxCell id="-9mjrlD3U77bwaLZREmP-48" value="" style="endArrow=none;html=1;rounded=0;exitX=0;exitY=0.5;exitDx=0;exitDy=0;entryX=0.5;entryY=0;entryDx=0;entryDy=0;" parent="1" source="-9mjrlD3U77bwaLZREmP-31" target="-9mjrlD3U77bwaLZREmP-30" edge="1">
          <mxGeometry width="50" height="50" relative="1" as="geometry">
            <mxPoint x="473" y="1970" as="sourcePoint" />
            <mxPoint x="403" y="1970" as="targetPoint" />
          </mxGeometry>
        </mxCell>
        <mxCell id="-9mjrlD3U77bwaLZREmP-49" value="&lt;font style=&quot;font-size: 14px;&quot;&gt;Поставка&lt;br&gt;&lt;/font&gt;" style="whiteSpace=wrap;html=1;direction=east;flipH=1;flipV=0;" parent="1" vertex="1">
          <mxGeometry x="640" y="3293" width="120" height="60" as="geometry" />
        </mxCell>
        <mxCell id="-9mjrlD3U77bwaLZREmP-50" value="&lt;font style=&quot;font-size: 14px;&quot;&gt;Номер поставки&lt;/font&gt;" style="ellipse;whiteSpace=wrap;html=1;direction=east;flipH=1;flipV=0;" parent="1" vertex="1">
          <mxGeometry x="833" y="3293" width="140" height="60" as="geometry" />
        </mxCell>
        <mxCell id="-9mjrlD3U77bwaLZREmP-51" value="&lt;font style=&quot;font-size: 14px;&quot;&gt;Номер сотрудника склада&lt;/font&gt;" style="ellipse;whiteSpace=wrap;html=1;direction=east;flipH=1;flipV=0;" parent="1" vertex="1">
          <mxGeometry x="833" y="3113" width="140" height="60" as="geometry" />
        </mxCell>
        <mxCell id="-9mjrlD3U77bwaLZREmP-52" value="&lt;span style=&quot;font-size: 14px;&quot;&gt;Дата поступления&lt;/span&gt;" style="ellipse;whiteSpace=wrap;html=1;direction=east;flipH=1;flipV=0;" parent="1" vertex="1">
          <mxGeometry x="833" y="3023" width="140" height="60" as="geometry" />
        </mxCell>
        <mxCell id="-9mjrlD3U77bwaLZREmP-53" value="&lt;span style=&quot;font-size: 14px;&quot;&gt;Поставщик&lt;br&gt;&lt;/span&gt;" style="ellipse;whiteSpace=wrap;html=1;direction=east;flipH=1;flipV=0;" parent="1" vertex="1">
          <mxGeometry x="833" y="3203" width="140" height="60" as="geometry" />
        </mxCell>
        <mxCell id="-9mjrlD3U77bwaLZREmP-54" value="" style="endArrow=none;html=1;rounded=0;exitX=0;exitY=0.5;exitDx=0;exitDy=0;entryX=0.5;entryY=0;entryDx=0;entryDy=0;" parent="1" source="-9mjrlD3U77bwaLZREmP-53" target="-9mjrlD3U77bwaLZREmP-49" edge="1">
          <mxGeometry width="50" height="50" relative="1" as="geometry">
            <mxPoint x="-160" y="2953" as="sourcePoint" />
            <mxPoint x="-210" y="2903" as="targetPoint" />
          </mxGeometry>
        </mxCell>
        <mxCell id="-9mjrlD3U77bwaLZREmP-55" value="" style="endArrow=none;html=1;rounded=0;exitX=0;exitY=0.5;exitDx=0;exitDy=0;entryX=0.5;entryY=0;entryDx=0;entryDy=0;" parent="1" source="-9mjrlD3U77bwaLZREmP-52" target="-9mjrlD3U77bwaLZREmP-49" edge="1">
          <mxGeometry width="50" height="50" relative="1" as="geometry">
            <mxPoint x="610" y="3243" as="sourcePoint" />
            <mxPoint x="573" y="3303" as="targetPoint" />
          </mxGeometry>
        </mxCell>
        <mxCell id="-9mjrlD3U77bwaLZREmP-56" value="" style="endArrow=none;html=1;rounded=0;exitX=0;exitY=0.5;exitDx=0;exitDy=0;entryX=0.5;entryY=0;entryDx=0;entryDy=0;" parent="1" source="-9mjrlD3U77bwaLZREmP-51" target="-9mjrlD3U77bwaLZREmP-49" edge="1">
          <mxGeometry width="50" height="50" relative="1" as="geometry">
            <mxPoint x="610" y="2963" as="sourcePoint" />
            <mxPoint x="573" y="3303" as="targetPoint" />
          </mxGeometry>
        </mxCell>
        <mxCell id="-9mjrlD3U77bwaLZREmP-57" value="" style="endArrow=none;html=1;rounded=0;" parent="1" edge="1">
          <mxGeometry width="50" height="50" relative="1" as="geometry">
            <mxPoint x="833" y="3323" as="sourcePoint" />
            <mxPoint x="763" y="3323" as="targetPoint" />
          </mxGeometry>
        </mxCell>
        <mxCell id="-9mjrlD3U77bwaLZREmP-58" value="&lt;span style=&quot;font-size: 14px;&quot;&gt;Номер счёт&lt;br&gt;фактуры&lt;br&gt;&lt;/span&gt;" style="ellipse;whiteSpace=wrap;html=1;direction=east;flipH=1;flipV=0;" parent="1" vertex="1">
          <mxGeometry x="833" y="2923" width="140" height="60" as="geometry" />
        </mxCell>
        <mxCell id="-9mjrlD3U77bwaLZREmP-59" value="" style="endArrow=none;html=1;rounded=0;exitX=0;exitY=0.5;exitDx=0;exitDy=0;" parent="1" source="-9mjrlD3U77bwaLZREmP-58" edge="1">
          <mxGeometry width="50" height="50" relative="1" as="geometry">
            <mxPoint x="843" y="3063" as="sourcePoint" />
            <mxPoint x="703" y="3293" as="targetPoint" />
          </mxGeometry>
        </mxCell>
        <mxCell id="-9mjrlD3U77bwaLZREmP-60" value="&lt;font style=&quot;font-size: 14px;&quot;&gt;Поставщик&lt;/font&gt;" style="whiteSpace=wrap;html=1;" parent="1" vertex="1">
          <mxGeometry x="127" y="3505" width="120" height="60" as="geometry" />
        </mxCell>
        <mxCell id="-9mjrlD3U77bwaLZREmP-61" value="&lt;font style=&quot;font-size: 14px;&quot;&gt;Номер поставщика&lt;/font&gt;" style="ellipse;whiteSpace=wrap;html=1;" parent="1" vertex="1">
          <mxGeometry x="-70" y="3505" width="140" height="60" as="geometry" />
        </mxCell>
        <mxCell id="-9mjrlD3U77bwaLZREmP-63" value="&lt;span style=&quot;font-size: 14px;&quot;&gt;БИК&lt;/span&gt;" style="ellipse;whiteSpace=wrap;html=1;" parent="1" vertex="1">
          <mxGeometry x="-70" y="2885" width="140" height="60" as="geometry" />
        </mxCell>
        <mxCell id="-9mjrlD3U77bwaLZREmP-64" value="&lt;span style=&quot;font-size: 14px;&quot;&gt;Наименование&lt;br&gt;банка&lt;br&gt;&lt;/span&gt;" style="ellipse;whiteSpace=wrap;html=1;" parent="1" vertex="1">
          <mxGeometry x="-70" y="2965" width="140" height="60" as="geometry" />
        </mxCell>
        <mxCell id="-9mjrlD3U77bwaLZREmP-65" value="&lt;span style=&quot;font-size: 14px;&quot;&gt;Контактная ифнормация&lt;/span&gt;" style="ellipse;whiteSpace=wrap;html=1;" parent="1" vertex="1">
          <mxGeometry x="-70" y="3045" width="140" height="60" as="geometry" />
        </mxCell>
        <mxCell id="-9mjrlD3U77bwaLZREmP-66" value="&lt;span style=&quot;font-size: 14px;&quot;&gt;Адрес&lt;/span&gt;" style="ellipse;whiteSpace=wrap;html=1;" parent="1" vertex="1">
          <mxGeometry x="-70" y="3135" width="140" height="60" as="geometry" />
        </mxCell>
        <mxCell id="-9mjrlD3U77bwaLZREmP-67" value="&lt;span style=&quot;font-size: 14px;&quot;&gt;ИНН&lt;/span&gt;" style="ellipse;whiteSpace=wrap;html=1;" parent="1" vertex="1">
          <mxGeometry x="-70" y="3315" width="140" height="60" as="geometry" />
        </mxCell>
        <mxCell id="-9mjrlD3U77bwaLZREmP-68" value="&lt;span style=&quot;font-size: 14px;&quot;&gt;Расчётный счёт&lt;/span&gt;" style="ellipse;whiteSpace=wrap;html=1;" parent="1" vertex="1">
          <mxGeometry x="-70" y="3225" width="140" height="60" as="geometry" />
        </mxCell>
        <mxCell id="-9mjrlD3U77bwaLZREmP-69" value="&lt;span style=&quot;font-size: 14px;&quot;&gt;Наименование&lt;br&gt;&lt;/span&gt;" style="ellipse;whiteSpace=wrap;html=1;" parent="1" vertex="1">
          <mxGeometry x="-70" y="3415" width="140" height="60" as="geometry" />
        </mxCell>
        <mxCell id="-9mjrlD3U77bwaLZREmP-70" value="" style="endArrow=none;html=1;rounded=0;exitX=1;exitY=0.5;exitDx=0;exitDy=0;entryX=0.5;entryY=0;entryDx=0;entryDy=0;" parent="1" source="-9mjrlD3U77bwaLZREmP-69" target="-9mjrlD3U77bwaLZREmP-60" edge="1">
          <mxGeometry width="50" height="50" relative="1" as="geometry">
            <mxPoint x="930" y="3165" as="sourcePoint" />
            <mxPoint x="980" y="3115" as="targetPoint" />
          </mxGeometry>
        </mxCell>
        <mxCell id="-9mjrlD3U77bwaLZREmP-71" value="" style="endArrow=none;html=1;rounded=0;exitX=1;exitY=0.5;exitDx=0;exitDy=0;entryX=0.5;entryY=0;entryDx=0;entryDy=0;" parent="1" source="-9mjrlD3U77bwaLZREmP-67" target="-9mjrlD3U77bwaLZREmP-60" edge="1">
          <mxGeometry width="50" height="50" relative="1" as="geometry">
            <mxPoint x="160" y="3455" as="sourcePoint" />
            <mxPoint x="197" y="3515" as="targetPoint" />
          </mxGeometry>
        </mxCell>
        <mxCell id="-9mjrlD3U77bwaLZREmP-72" value="" style="endArrow=none;html=1;rounded=0;exitX=1;exitY=0.5;exitDx=0;exitDy=0;entryX=0.5;entryY=0;entryDx=0;entryDy=0;" parent="1" source="-9mjrlD3U77bwaLZREmP-68" target="-9mjrlD3U77bwaLZREmP-60" edge="1">
          <mxGeometry width="50" height="50" relative="1" as="geometry">
            <mxPoint x="160" y="3355" as="sourcePoint" />
            <mxPoint x="197" y="3515" as="targetPoint" />
          </mxGeometry>
        </mxCell>
        <mxCell id="-9mjrlD3U77bwaLZREmP-73" value="" style="endArrow=none;html=1;rounded=0;exitX=1;exitY=0.5;exitDx=0;exitDy=0;entryX=0.5;entryY=0;entryDx=0;entryDy=0;" parent="1" source="-9mjrlD3U77bwaLZREmP-66" target="-9mjrlD3U77bwaLZREmP-60" edge="1">
          <mxGeometry width="50" height="50" relative="1" as="geometry">
            <mxPoint x="160" y="3265" as="sourcePoint" />
            <mxPoint x="197" y="3515" as="targetPoint" />
          </mxGeometry>
        </mxCell>
        <mxCell id="-9mjrlD3U77bwaLZREmP-74" value="" style="endArrow=none;html=1;rounded=0;exitX=1;exitY=0.5;exitDx=0;exitDy=0;entryX=0.5;entryY=0;entryDx=0;entryDy=0;" parent="1" source="-9mjrlD3U77bwaLZREmP-65" target="-9mjrlD3U77bwaLZREmP-60" edge="1">
          <mxGeometry width="50" height="50" relative="1" as="geometry">
            <mxPoint x="160" y="3175" as="sourcePoint" />
            <mxPoint x="197" y="3515" as="targetPoint" />
          </mxGeometry>
        </mxCell>
        <mxCell id="-9mjrlD3U77bwaLZREmP-75" value="" style="endArrow=none;html=1;rounded=0;exitX=1;exitY=0.5;exitDx=0;exitDy=0;entryX=0.5;entryY=0;entryDx=0;entryDy=0;" parent="1" source="-9mjrlD3U77bwaLZREmP-64" target="-9mjrlD3U77bwaLZREmP-60" edge="1">
          <mxGeometry width="50" height="50" relative="1" as="geometry">
            <mxPoint x="160" y="3085" as="sourcePoint" />
            <mxPoint x="197" y="3515" as="targetPoint" />
          </mxGeometry>
        </mxCell>
        <mxCell id="-9mjrlD3U77bwaLZREmP-76" value="" style="endArrow=none;html=1;rounded=0;exitX=1;exitY=0.5;exitDx=0;exitDy=0;entryX=0.5;entryY=0;entryDx=0;entryDy=0;" parent="1" source="-9mjrlD3U77bwaLZREmP-63" target="-9mjrlD3U77bwaLZREmP-60" edge="1">
          <mxGeometry width="50" height="50" relative="1" as="geometry">
            <mxPoint x="160" y="3005" as="sourcePoint" />
            <mxPoint x="197" y="3515" as="targetPoint" />
          </mxGeometry>
        </mxCell>
        <mxCell id="-9mjrlD3U77bwaLZREmP-78" value="" style="endArrow=none;html=1;rounded=0;exitX=1;exitY=0.5;exitDx=0;exitDy=0;entryX=0;entryY=0.5;entryDx=0;entryDy=0;" parent="1" source="-9mjrlD3U77bwaLZREmP-61" target="-9mjrlD3U77bwaLZREmP-60" edge="1">
          <mxGeometry width="50" height="50" relative="1" as="geometry">
            <mxPoint x="160" y="3455" as="sourcePoint" />
            <mxPoint x="197" y="3515" as="targetPoint" />
          </mxGeometry>
        </mxCell>
        <mxCell id="-9mjrlD3U77bwaLZREmP-80" value="&lt;font style=&quot;font-size: 14px;&quot;&gt;Транспортная&lt;br&gt;компания&lt;br&gt;&lt;/font&gt;" style="whiteSpace=wrap;html=1;direction=east;flipH=1;flipV=0;" parent="1" vertex="1">
          <mxGeometry x="520" y="1940" width="120" height="60" as="geometry" />
        </mxCell>
        <mxCell id="-9mjrlD3U77bwaLZREmP-81" value="&lt;font style=&quot;font-size: 14px;&quot;&gt;&lt;font style=&quot;font-size: 14px;&quot;&gt;Номер т&lt;/font&gt;ранспортной компании&lt;/font&gt;" style="ellipse;whiteSpace=wrap;html=1;direction=east;flipH=1;flipV=0;" parent="1" vertex="1">
          <mxGeometry x="713" y="1940" width="237" height="60" as="geometry" />
        </mxCell>
        <mxCell id="-9mjrlD3U77bwaLZREmP-82" value="&lt;span style=&quot;font-size: 14px;&quot;&gt;Контактная ифнормация&lt;/span&gt;" style="ellipse;whiteSpace=wrap;html=1;direction=east;flipH=1;flipV=0;" parent="1" vertex="1">
          <mxGeometry x="713" y="1760" width="140" height="60" as="geometry" />
        </mxCell>
        <mxCell id="-9mjrlD3U77bwaLZREmP-83" value="&lt;span style=&quot;font-size: 14px;&quot;&gt;Адрес&lt;/span&gt;" style="ellipse;whiteSpace=wrap;html=1;direction=east;flipH=1;flipV=0;" parent="1" vertex="1">
          <mxGeometry x="713" y="1670" width="140" height="60" as="geometry" />
        </mxCell>
        <mxCell id="-9mjrlD3U77bwaLZREmP-84" value="&lt;span style=&quot;font-size: 14px;&quot;&gt;Наименование&lt;br&gt;&lt;/span&gt;" style="ellipse;whiteSpace=wrap;html=1;direction=east;flipH=1;flipV=0;" parent="1" vertex="1">
          <mxGeometry x="713" y="1850" width="140" height="60" as="geometry" />
        </mxCell>
        <mxCell id="-9mjrlD3U77bwaLZREmP-85" value="" style="endArrow=none;html=1;rounded=0;exitX=0;exitY=0.5;exitDx=0;exitDy=0;entryX=0.5;entryY=0;entryDx=0;entryDy=0;" parent="1" source="-9mjrlD3U77bwaLZREmP-84" target="-9mjrlD3U77bwaLZREmP-80" edge="1">
          <mxGeometry width="50" height="50" relative="1" as="geometry">
            <mxPoint x="-280" y="1600" as="sourcePoint" />
            <mxPoint x="-330" y="1550" as="targetPoint" />
          </mxGeometry>
        </mxCell>
        <mxCell id="-9mjrlD3U77bwaLZREmP-86" value="" style="endArrow=none;html=1;rounded=0;exitX=0;exitY=0.5;exitDx=0;exitDy=0;entryX=0.5;entryY=0;entryDx=0;entryDy=0;" parent="1" source="-9mjrlD3U77bwaLZREmP-83" target="-9mjrlD3U77bwaLZREmP-80" edge="1">
          <mxGeometry width="50" height="50" relative="1" as="geometry">
            <mxPoint x="490" y="1890" as="sourcePoint" />
            <mxPoint x="453" y="1950" as="targetPoint" />
          </mxGeometry>
        </mxCell>
        <mxCell id="-9mjrlD3U77bwaLZREmP-87" value="" style="endArrow=none;html=1;rounded=0;exitX=0;exitY=0.5;exitDx=0;exitDy=0;entryX=0.5;entryY=0;entryDx=0;entryDy=0;" parent="1" source="-9mjrlD3U77bwaLZREmP-82" target="-9mjrlD3U77bwaLZREmP-80" edge="1">
          <mxGeometry width="50" height="50" relative="1" as="geometry">
            <mxPoint x="490" y="1610" as="sourcePoint" />
            <mxPoint x="453" y="1950" as="targetPoint" />
          </mxGeometry>
        </mxCell>
        <mxCell id="-9mjrlD3U77bwaLZREmP-88" value="" style="endArrow=none;html=1;rounded=0;" parent="1" edge="1">
          <mxGeometry width="50" height="50" relative="1" as="geometry">
            <mxPoint x="713" y="1970" as="sourcePoint" />
            <mxPoint x="643" y="1970" as="targetPoint" />
          </mxGeometry>
        </mxCell>
        <mxCell id="-9mjrlD3U77bwaLZREmP-89" value="&lt;span style=&quot;font-size: 14px;&quot;&gt;ИНН&lt;/span&gt;" style="ellipse;whiteSpace=wrap;html=1;direction=east;flipH=1;flipV=0;" parent="1" vertex="1">
          <mxGeometry x="713" y="1570" width="140" height="60" as="geometry" />
        </mxCell>
        <mxCell id="-9mjrlD3U77bwaLZREmP-90" value="" style="endArrow=none;html=1;rounded=0;exitX=0;exitY=0.5;exitDx=0;exitDy=0;" parent="1" source="-9mjrlD3U77bwaLZREmP-89" edge="1">
          <mxGeometry width="50" height="50" relative="1" as="geometry">
            <mxPoint x="723" y="1710" as="sourcePoint" />
            <mxPoint x="583" y="1940" as="targetPoint" />
          </mxGeometry>
        </mxCell>
        <mxCell id="-9mjrlD3U77bwaLZREmP-93" value="&lt;font style=&quot;font-size: 14px;&quot;&gt;Товары&lt;br&gt;&lt;/font&gt;" style="whiteSpace=wrap;html=1;direction=east;flipH=1;flipV=0;" parent="1" vertex="1">
          <mxGeometry x="610" y="2480" width="120" height="60" as="geometry" />
        </mxCell>
        <mxCell id="-9mjrlD3U77bwaLZREmP-94" value="&lt;font style=&quot;font-size: 14px;&quot;&gt;Номер товара&lt;/font&gt;" style="ellipse;whiteSpace=wrap;html=1;direction=east;flipH=1;flipV=0;" parent="1" vertex="1">
          <mxGeometry x="803" y="2480" width="140" height="60" as="geometry" />
        </mxCell>
        <mxCell id="-9mjrlD3U77bwaLZREmP-95" value="&lt;span style=&quot;font-size: 14px;&quot;&gt;Стоимость&lt;/span&gt;" style="ellipse;whiteSpace=wrap;html=1;direction=east;flipH=1;flipV=0;" parent="1" vertex="1">
          <mxGeometry x="803" y="2300" width="140" height="60" as="geometry" />
        </mxCell>
        <mxCell id="-9mjrlD3U77bwaLZREmP-96" value="&lt;span style=&quot;font-size: 14px;&quot;&gt;Единицы&lt;br&gt;измерения&lt;/span&gt;" style="ellipse;whiteSpace=wrap;html=1;direction=east;flipH=1;flipV=0;" parent="1" vertex="1">
          <mxGeometry x="803" y="2210" width="140" height="60" as="geometry" />
        </mxCell>
        <mxCell id="-9mjrlD3U77bwaLZREmP-97" value="&lt;span style=&quot;font-size: 14px;&quot;&gt;Наименование&lt;br&gt;&lt;/span&gt;" style="ellipse;whiteSpace=wrap;html=1;direction=east;flipH=1;flipV=0;" parent="1" vertex="1">
          <mxGeometry x="803" y="2390" width="140" height="60" as="geometry" />
        </mxCell>
        <mxCell id="-9mjrlD3U77bwaLZREmP-98" value="" style="endArrow=none;html=1;rounded=0;exitX=0;exitY=0.5;exitDx=0;exitDy=0;entryX=0.5;entryY=0;entryDx=0;entryDy=0;" parent="1" source="-9mjrlD3U77bwaLZREmP-97" target="-9mjrlD3U77bwaLZREmP-93" edge="1">
          <mxGeometry width="50" height="50" relative="1" as="geometry">
            <mxPoint x="-190" y="2140" as="sourcePoint" />
            <mxPoint x="-240" y="2090" as="targetPoint" />
          </mxGeometry>
        </mxCell>
        <mxCell id="-9mjrlD3U77bwaLZREmP-99" value="" style="endArrow=none;html=1;rounded=0;exitX=0;exitY=0.5;exitDx=0;exitDy=0;entryX=0.5;entryY=0;entryDx=0;entryDy=0;" parent="1" source="-9mjrlD3U77bwaLZREmP-96" target="-9mjrlD3U77bwaLZREmP-93" edge="1">
          <mxGeometry width="50" height="50" relative="1" as="geometry">
            <mxPoint x="580" y="2430" as="sourcePoint" />
            <mxPoint x="543" y="2490" as="targetPoint" />
          </mxGeometry>
        </mxCell>
        <mxCell id="-9mjrlD3U77bwaLZREmP-100" value="" style="endArrow=none;html=1;rounded=0;exitX=0;exitY=0.5;exitDx=0;exitDy=0;entryX=0.5;entryY=0;entryDx=0;entryDy=0;" parent="1" source="-9mjrlD3U77bwaLZREmP-95" target="-9mjrlD3U77bwaLZREmP-93" edge="1">
          <mxGeometry width="50" height="50" relative="1" as="geometry">
            <mxPoint x="580" y="2150" as="sourcePoint" />
            <mxPoint x="543" y="2490" as="targetPoint" />
          </mxGeometry>
        </mxCell>
        <mxCell id="-9mjrlD3U77bwaLZREmP-101" value="" style="endArrow=none;html=1;rounded=0;" parent="1" edge="1">
          <mxGeometry width="50" height="50" relative="1" as="geometry">
            <mxPoint x="803" y="2510" as="sourcePoint" />
            <mxPoint x="733" y="2510" as="targetPoint" />
          </mxGeometry>
        </mxCell>
        <mxCell id="-9mjrlD3U77bwaLZREmP-104" value="&lt;font style=&quot;font-size: 14px;&quot;&gt;Содержание поставки&lt;br&gt;&lt;/font&gt;" style="whiteSpace=wrap;html=1;direction=east;flipH=1;flipV=0;" parent="1" vertex="1">
          <mxGeometry x="533.5" y="3877" width="120" height="60" as="geometry" />
        </mxCell>
        <mxCell id="-9mjrlD3U77bwaLZREmP-105" value="&lt;font style=&quot;font-size: 14px;&quot;&gt;&lt;font style=&quot;font-size: 14px;&quot;&gt;Номер с&lt;/font&gt;одержания поставки&lt;/font&gt;" style="ellipse;whiteSpace=wrap;html=1;direction=east;flipH=1;flipV=0;" parent="1" vertex="1">
          <mxGeometry x="740" y="3877" width="140" height="60" as="geometry" />
        </mxCell>
        <mxCell id="-9mjrlD3U77bwaLZREmP-106" value="&lt;font style=&quot;font-size: 14px;&quot;&gt;Количесиво&lt;/font&gt;" style="ellipse;whiteSpace=wrap;html=1;direction=east;flipH=1;flipV=0;" parent="1" vertex="1">
          <mxGeometry x="740" y="3655" width="140" height="60" as="geometry" />
        </mxCell>
        <mxCell id="-9mjrlD3U77bwaLZREmP-107" value="&lt;font style=&quot;font-size: 14px;&quot;&gt;Цена товара&lt;/font&gt;&lt;span style=&quot;font-size: 14px;&quot;&gt;&lt;br&gt;&lt;/span&gt;" style="ellipse;whiteSpace=wrap;html=1;direction=east;flipH=1;flipV=0;" parent="1" vertex="1">
          <mxGeometry x="740" y="3575" width="140" height="60" as="geometry" />
        </mxCell>
        <mxCell id="-9mjrlD3U77bwaLZREmP-108" value="&lt;font style=&quot;font-size: 14px;&quot;&gt;Номер поставки&lt;/font&gt;&lt;span style=&quot;font-size: 14px;&quot;&gt;&lt;br&gt;&lt;/span&gt;" style="ellipse;whiteSpace=wrap;html=1;direction=east;flipH=1;flipV=0;" parent="1" vertex="1">
          <mxGeometry x="740" y="3810" width="140" height="60" as="geometry" />
        </mxCell>
        <mxCell id="-9mjrlD3U77bwaLZREmP-109" value="" style="endArrow=none;html=1;rounded=0;exitX=0;exitY=0.5;exitDx=0;exitDy=0;entryX=0.5;entryY=0;entryDx=0;entryDy=0;" parent="1" source="-9mjrlD3U77bwaLZREmP-108" target="-9mjrlD3U77bwaLZREmP-104" edge="1">
          <mxGeometry width="50" height="50" relative="1" as="geometry">
            <mxPoint x="-266.5" y="3537" as="sourcePoint" />
            <mxPoint x="-316.5" y="3487" as="targetPoint" />
          </mxGeometry>
        </mxCell>
        <mxCell id="-9mjrlD3U77bwaLZREmP-110" value="" style="endArrow=none;html=1;rounded=0;exitX=0;exitY=0.5;exitDx=0;exitDy=0;entryX=0.5;entryY=0;entryDx=0;entryDy=0;" parent="1" source="-9mjrlD3U77bwaLZREmP-107" target="-9mjrlD3U77bwaLZREmP-104" edge="1">
          <mxGeometry width="50" height="50" relative="1" as="geometry">
            <mxPoint x="503.5" y="3827" as="sourcePoint" />
            <mxPoint x="466.5" y="3887" as="targetPoint" />
          </mxGeometry>
        </mxCell>
        <mxCell id="-9mjrlD3U77bwaLZREmP-111" value="" style="endArrow=none;html=1;rounded=0;exitX=0;exitY=0.5;exitDx=0;exitDy=0;entryX=0.5;entryY=0;entryDx=0;entryDy=0;" parent="1" source="-9mjrlD3U77bwaLZREmP-106" target="-9mjrlD3U77bwaLZREmP-104" edge="1">
          <mxGeometry width="50" height="50" relative="1" as="geometry">
            <mxPoint x="503.5" y="3547" as="sourcePoint" />
            <mxPoint x="466.5" y="3887" as="targetPoint" />
          </mxGeometry>
        </mxCell>
        <mxCell id="-9mjrlD3U77bwaLZREmP-112" value="" style="endArrow=none;html=1;rounded=0;exitX=0;exitY=0.5;exitDx=0;exitDy=0;" parent="1" edge="1" source="-9mjrlD3U77bwaLZREmP-105">
          <mxGeometry width="50" height="50" relative="1" as="geometry">
            <mxPoint x="726.5" y="3907" as="sourcePoint" />
            <mxPoint x="656.5" y="3907" as="targetPoint" />
          </mxGeometry>
        </mxCell>
        <mxCell id="-9mjrlD3U77bwaLZREmP-113" value="&lt;font style=&quot;font-size: 14px;&quot;&gt;Содержание заказа&lt;br&gt;&lt;/font&gt;" style="whiteSpace=wrap;html=1;direction=east;flipH=1;flipV=0;" parent="1" vertex="1">
          <mxGeometry x="320" y="2975" width="120" height="60" as="geometry" />
        </mxCell>
        <mxCell id="-9mjrlD3U77bwaLZREmP-114" value="&lt;font style=&quot;font-size: 14px;&quot;&gt;Номер содержания заказ&lt;/font&gt;" style="ellipse;whiteSpace=wrap;html=1;direction=east;flipH=1;flipV=0;" parent="1" vertex="1">
          <mxGeometry x="513" y="2975" width="157" height="60" as="geometry" />
        </mxCell>
        <mxCell id="-9mjrlD3U77bwaLZREmP-115" value="&lt;span style=&quot;font-size: 14px;&quot;&gt;Количество&lt;/span&gt;" style="ellipse;whiteSpace=wrap;html=1;direction=east;flipH=1;flipV=0;" parent="1" vertex="1">
          <mxGeometry x="513" y="2795" width="140" height="60" as="geometry" />
        </mxCell>
        <mxCell id="-9mjrlD3U77bwaLZREmP-116" value="&lt;span style=&quot;font-size: 14px;&quot;&gt;Номер заказа&lt;/span&gt;" style="ellipse;whiteSpace=wrap;html=1;direction=east;flipH=1;flipV=0;" parent="1" vertex="1">
          <mxGeometry x="513" y="2705" width="140" height="60" as="geometry" />
        </mxCell>
        <mxCell id="-9mjrlD3U77bwaLZREmP-117" value="&lt;span style=&quot;font-size: 14px;&quot;&gt;Номер товара&lt;br&gt;&lt;/span&gt;" style="ellipse;whiteSpace=wrap;html=1;direction=east;flipH=1;flipV=0;" parent="1" vertex="1">
          <mxGeometry x="513" y="2885" width="140" height="60" as="geometry" />
        </mxCell>
        <mxCell id="-9mjrlD3U77bwaLZREmP-118" value="" style="endArrow=none;html=1;rounded=0;exitX=0;exitY=0.5;exitDx=0;exitDy=0;entryX=0.5;entryY=0;entryDx=0;entryDy=0;" parent="1" source="-9mjrlD3U77bwaLZREmP-117" target="-9mjrlD3U77bwaLZREmP-113" edge="1">
          <mxGeometry width="50" height="50" relative="1" as="geometry">
            <mxPoint x="-480" y="2635" as="sourcePoint" />
            <mxPoint x="-530" y="2585" as="targetPoint" />
          </mxGeometry>
        </mxCell>
        <mxCell id="-9mjrlD3U77bwaLZREmP-119" value="" style="endArrow=none;html=1;rounded=0;exitX=0;exitY=0.5;exitDx=0;exitDy=0;entryX=0.5;entryY=0;entryDx=0;entryDy=0;" parent="1" source="-9mjrlD3U77bwaLZREmP-116" target="-9mjrlD3U77bwaLZREmP-113" edge="1">
          <mxGeometry width="50" height="50" relative="1" as="geometry">
            <mxPoint x="290" y="2925" as="sourcePoint" />
            <mxPoint x="253" y="2985" as="targetPoint" />
          </mxGeometry>
        </mxCell>
        <mxCell id="-9mjrlD3U77bwaLZREmP-120" value="" style="endArrow=none;html=1;rounded=0;exitX=0;exitY=0.5;exitDx=0;exitDy=0;entryX=0.5;entryY=0;entryDx=0;entryDy=0;" parent="1" source="-9mjrlD3U77bwaLZREmP-115" target="-9mjrlD3U77bwaLZREmP-113" edge="1">
          <mxGeometry width="50" height="50" relative="1" as="geometry">
            <mxPoint x="290" y="2645" as="sourcePoint" />
            <mxPoint x="253" y="2985" as="targetPoint" />
          </mxGeometry>
        </mxCell>
        <mxCell id="-9mjrlD3U77bwaLZREmP-121" value="" style="endArrow=none;html=1;rounded=0;" parent="1" edge="1">
          <mxGeometry width="50" height="50" relative="1" as="geometry">
            <mxPoint x="513" y="3005" as="sourcePoint" />
            <mxPoint x="443" y="3005" as="targetPoint" />
          </mxGeometry>
        </mxCell>
        <mxCell id="-9mjrlD3U77bwaLZREmP-124" value="&lt;font style=&quot;font-size: 14px;&quot;&gt;Единицы&lt;br style=&quot;border-color: var(--border-color);&quot;&gt;измерения&lt;/font&gt;&lt;span style=&quot;font-size: 14px;&quot;&gt;&lt;br&gt;&lt;/span&gt;" style="ellipse;whiteSpace=wrap;html=1;direction=east;flipH=1;flipV=0;" parent="1" vertex="1">
          <mxGeometry x="740" y="3500" width="140" height="60" as="geometry" />
        </mxCell>
        <mxCell id="-9mjrlD3U77bwaLZREmP-125" value="" style="endArrow=none;html=1;rounded=0;exitX=0;exitY=0.5;exitDx=0;exitDy=0;" parent="1" source="-9mjrlD3U77bwaLZREmP-124" edge="1">
          <mxGeometry width="50" height="50" relative="1" as="geometry">
            <mxPoint x="736.5" y="3647" as="sourcePoint" />
            <mxPoint x="593.5" y="3877" as="targetPoint" />
          </mxGeometry>
        </mxCell>
        <mxCell id="-9mjrlD3U77bwaLZREmP-126" value="&lt;font style=&quot;font-size: 14px;&quot;&gt;Заказ&lt;/font&gt;" style="whiteSpace=wrap;html=1;" parent="1" vertex="1">
          <mxGeometry x="350" y="2200" width="120" height="60" as="geometry" />
        </mxCell>
        <mxCell id="-9mjrlD3U77bwaLZREmP-127" value="&lt;font style=&quot;font-size: 14px;&quot;&gt;Номер заказа&lt;/font&gt;" style="ellipse;whiteSpace=wrap;html=1;" parent="1" vertex="1">
          <mxGeometry x="-254" y="2840" width="140" height="60" as="geometry" />
        </mxCell>
        <mxCell id="-9mjrlD3U77bwaLZREmP-128" value="&lt;span style=&quot;font-size: 14px;&quot;&gt;Сумма продажи&lt;/span&gt;" style="ellipse;whiteSpace=wrap;html=1;" parent="1" vertex="1">
          <mxGeometry x="-254" y="2140" width="140" height="60" as="geometry" />
        </mxCell>
        <mxCell id="-9mjrlD3U77bwaLZREmP-129" value="&lt;span style=&quot;font-size: 14px;&quot;&gt;Доп-информация&lt;/span&gt;" style="ellipse;whiteSpace=wrap;html=1;" parent="1" vertex="1">
          <mxGeometry x="-254" y="2220" width="140" height="60" as="geometry" />
        </mxCell>
        <mxCell id="-9mjrlD3U77bwaLZREmP-130" value="&lt;font style=&quot;font-size: 14px;&quot;&gt;Дата отгрузки&lt;/font&gt;" style="ellipse;whiteSpace=wrap;html=1;" parent="1" vertex="1">
          <mxGeometry x="-254" y="2300" width="140" height="60" as="geometry" />
        </mxCell>
        <mxCell id="-9mjrlD3U77bwaLZREmP-131" value="&lt;span style=&quot;font-size: 14px;&quot;&gt;Дата продажи&lt;/span&gt;" style="ellipse;whiteSpace=wrap;html=1;" parent="1" vertex="1">
          <mxGeometry x="-254" y="2380" width="140" height="60" as="geometry" />
        </mxCell>
        <mxCell id="-9mjrlD3U77bwaLZREmP-132" value="&lt;span style=&quot;font-size: 14px;&quot;&gt;Номер&amp;nbsp;&lt;br&gt;транспортной&amp;nbsp;&lt;br&gt;компании&lt;br&gt;&lt;/span&gt;" style="ellipse;whiteSpace=wrap;html=1;" parent="1" vertex="1">
          <mxGeometry x="-254" y="2470" width="140" height="60" as="geometry" />
        </mxCell>
        <mxCell id="-9mjrlD3U77bwaLZREmP-133" value="&lt;span style=&quot;font-size: 14px;&quot;&gt;Номер сотрудника продажи&lt;/span&gt;" style="ellipse;whiteSpace=wrap;html=1;" parent="1" vertex="1">
          <mxGeometry x="-254" y="2650" width="140" height="60" as="geometry" />
        </mxCell>
        <mxCell id="-9mjrlD3U77bwaLZREmP-134" value="&lt;font style=&quot;font-size: 14px;&quot;&gt;Номер сотрудника склада&lt;/font&gt;" style="ellipse;whiteSpace=wrap;html=1;" parent="1" vertex="1">
          <mxGeometry x="-254" y="2560" width="140" height="60" as="geometry" />
        </mxCell>
        <mxCell id="-9mjrlD3U77bwaLZREmP-135" value="&lt;span style=&quot;font-size: 14px;&quot;&gt;Номер клиента&lt;br&gt;&lt;/span&gt;" style="ellipse;whiteSpace=wrap;html=1;" parent="1" vertex="1">
          <mxGeometry x="-254" y="2750" width="140" height="60" as="geometry" />
        </mxCell>
        <mxCell id="-9mjrlD3U77bwaLZREmP-136" value="" style="endArrow=none;html=1;rounded=0;exitX=1;exitY=0.5;exitDx=0;exitDy=0;entryX=0;entryY=1;entryDx=0;entryDy=0;" parent="1" source="-9mjrlD3U77bwaLZREmP-135" target="-9mjrlD3U77bwaLZREmP-149" edge="1">
          <mxGeometry width="50" height="50" relative="1" as="geometry">
            <mxPoint x="746" y="2500" as="sourcePoint" />
            <mxPoint x="796" y="2450" as="targetPoint" />
          </mxGeometry>
        </mxCell>
        <mxCell id="-9mjrlD3U77bwaLZREmP-137" value="" style="endArrow=none;html=1;rounded=0;exitX=1;exitY=0.5;exitDx=0;exitDy=0;entryX=0;entryY=1;entryDx=0;entryDy=0;" parent="1" source="-9mjrlD3U77bwaLZREmP-133" target="-9mjrlD3U77bwaLZREmP-149" edge="1">
          <mxGeometry width="50" height="50" relative="1" as="geometry">
            <mxPoint x="-24" y="2790" as="sourcePoint" />
            <mxPoint x="13" y="2850" as="targetPoint" />
          </mxGeometry>
        </mxCell>
        <mxCell id="-9mjrlD3U77bwaLZREmP-138" value="" style="endArrow=none;html=1;rounded=0;exitX=1;exitY=0.5;exitDx=0;exitDy=0;entryX=0;entryY=1;entryDx=0;entryDy=0;" parent="1" source="-9mjrlD3U77bwaLZREmP-134" target="-9mjrlD3U77bwaLZREmP-149" edge="1">
          <mxGeometry width="50" height="50" relative="1" as="geometry">
            <mxPoint x="-24" y="2690" as="sourcePoint" />
            <mxPoint x="13" y="2850" as="targetPoint" />
          </mxGeometry>
        </mxCell>
        <mxCell id="-9mjrlD3U77bwaLZREmP-139" value="" style="endArrow=none;html=1;rounded=0;exitX=1;exitY=0.5;exitDx=0;exitDy=0;entryX=0;entryY=1;entryDx=0;entryDy=0;" parent="1" source="-9mjrlD3U77bwaLZREmP-132" target="-9mjrlD3U77bwaLZREmP-149" edge="1">
          <mxGeometry width="50" height="50" relative="1" as="geometry">
            <mxPoint x="-24" y="2600" as="sourcePoint" />
            <mxPoint x="13" y="2850" as="targetPoint" />
          </mxGeometry>
        </mxCell>
        <mxCell id="-9mjrlD3U77bwaLZREmP-140" value="" style="endArrow=none;html=1;rounded=0;exitX=1;exitY=0.5;exitDx=0;exitDy=0;entryX=0;entryY=1;entryDx=0;entryDy=0;" parent="1" source="-9mjrlD3U77bwaLZREmP-131" target="-9mjrlD3U77bwaLZREmP-149" edge="1">
          <mxGeometry width="50" height="50" relative="1" as="geometry">
            <mxPoint x="-24" y="2510" as="sourcePoint" />
            <mxPoint x="350" y="2220" as="targetPoint" />
          </mxGeometry>
        </mxCell>
        <mxCell id="-9mjrlD3U77bwaLZREmP-141" value="" style="endArrow=none;html=1;rounded=0;exitX=1;exitY=0.5;exitDx=0;exitDy=0;entryX=0;entryY=1;entryDx=0;entryDy=0;" parent="1" source="-9mjrlD3U77bwaLZREmP-130" target="-9mjrlD3U77bwaLZREmP-149" edge="1">
          <mxGeometry width="50" height="50" relative="1" as="geometry">
            <mxPoint x="-24" y="2420" as="sourcePoint" />
            <mxPoint x="350" y="2220" as="targetPoint" />
          </mxGeometry>
        </mxCell>
        <mxCell id="-9mjrlD3U77bwaLZREmP-142" value="" style="endArrow=none;html=1;rounded=0;exitX=1;exitY=0.5;exitDx=0;exitDy=0;entryX=0;entryY=1;entryDx=0;entryDy=0;" parent="1" source="-9mjrlD3U77bwaLZREmP-129" target="-9mjrlD3U77bwaLZREmP-149" edge="1">
          <mxGeometry width="50" height="50" relative="1" as="geometry">
            <mxPoint x="-24" y="2340" as="sourcePoint" />
            <mxPoint x="350" y="2220" as="targetPoint" />
          </mxGeometry>
        </mxCell>
        <mxCell id="-9mjrlD3U77bwaLZREmP-143" value="" style="endArrow=none;html=1;rounded=0;exitX=1;exitY=0.5;exitDx=0;exitDy=0;entryX=0;entryY=1;entryDx=0;entryDy=0;" parent="1" source="-9mjrlD3U77bwaLZREmP-128" target="-9mjrlD3U77bwaLZREmP-149" edge="1">
          <mxGeometry width="50" height="50" relative="1" as="geometry">
            <mxPoint x="-24" y="2260" as="sourcePoint" />
            <mxPoint x="350" y="2220" as="targetPoint" />
          </mxGeometry>
        </mxCell>
        <mxCell id="-9mjrlD3U77bwaLZREmP-144" value="" style="endArrow=none;html=1;rounded=0;exitX=1;exitY=0.5;exitDx=0;exitDy=0;entryX=0;entryY=1;entryDx=0;entryDy=0;" parent="1" source="-9mjrlD3U77bwaLZREmP-127" target="-9mjrlD3U77bwaLZREmP-149" edge="1">
          <mxGeometry width="50" height="50" relative="1" as="geometry">
            <mxPoint x="-24" y="2790" as="sourcePoint" />
            <mxPoint x="13" y="2850" as="targetPoint" />
          </mxGeometry>
        </mxCell>
        <mxCell id="-9mjrlD3U77bwaLZREmP-145" value="&lt;font style=&quot;font-size: 14px;&quot;&gt;Необходима ли&amp;nbsp;&lt;br style=&quot;border-color: var(--border-color);&quot;&gt;быстрая&lt;br&gt;отгрузка&lt;/font&gt;" style="ellipse;whiteSpace=wrap;html=1;" parent="1" vertex="1">
          <mxGeometry x="-254" y="2060" width="140" height="60" as="geometry" />
        </mxCell>
        <mxCell id="-9mjrlD3U77bwaLZREmP-146" value="&lt;span style=&quot;font-size: 14px;&quot;&gt;Необходимо&amp;nbsp;ли&amp;nbsp;&lt;/span&gt;&lt;br&gt;&lt;span style=&quot;font-size: 14px;&quot;&gt;упаковать &lt;/span&gt;&lt;br&gt;&lt;span style=&quot;font-size: 14px;&quot;&gt;в плёнку&lt;/span&gt;" style="ellipse;whiteSpace=wrap;html=1;" parent="1" vertex="1">
          <mxGeometry x="-254" y="1950" width="140" height="70" as="geometry" />
        </mxCell>
        <mxCell id="-9mjrlD3U77bwaLZREmP-147" value="" style="endArrow=none;html=1;rounded=0;exitX=1;exitY=0.5;exitDx=0;exitDy=0;entryX=0;entryY=1;entryDx=0;entryDy=0;" parent="1" source="-9mjrlD3U77bwaLZREmP-145" target="-9mjrlD3U77bwaLZREmP-149" edge="1">
          <mxGeometry width="50" height="50" relative="1" as="geometry">
            <mxPoint x="-104" y="2180" as="sourcePoint" />
            <mxPoint x="350" y="2220" as="targetPoint" />
          </mxGeometry>
        </mxCell>
        <mxCell id="-9mjrlD3U77bwaLZREmP-148" value="" style="endArrow=none;html=1;rounded=0;entryX=0;entryY=1;entryDx=0;entryDy=0;exitX=1;exitY=0.5;exitDx=0;exitDy=0;" parent="1" source="-9mjrlD3U77bwaLZREmP-146" target="-9mjrlD3U77bwaLZREmP-149" edge="1">
          <mxGeometry width="50" height="50" relative="1" as="geometry">
            <mxPoint x="-107" y="2070" as="sourcePoint" />
            <mxPoint x="23" y="2860" as="targetPoint" />
          </mxGeometry>
        </mxCell>
        <mxCell id="-9mjrlD3U77bwaLZREmP-150" value="" style="endArrow=none;html=1;rounded=0;exitX=0.5;exitY=1;exitDx=0;exitDy=0;entryX=0.5;entryY=0;entryDx=0;entryDy=0;" parent="1" source="-9mjrlD3U77bwaLZREmP-1" target="-9mjrlD3U77bwaLZREmP-149" edge="1">
          <mxGeometry width="50" height="50" relative="1" as="geometry">
            <mxPoint x="440" y="1900" as="sourcePoint" />
            <mxPoint x="490" y="1850" as="targetPoint" />
            <Array as="points">
              <mxPoint x="153" y="2090" />
              <mxPoint x="414" y="2090" />
            </Array>
          </mxGeometry>
        </mxCell>
        <mxCell id="-9mjrlD3U77bwaLZREmP-151" value="" style="endArrow=none;html=1;rounded=0;exitX=0.5;exitY=1;exitDx=0;exitDy=0;entryX=0.5;entryY=0;entryDx=0;entryDy=0;" parent="1" source="-9mjrlD3U77bwaLZREmP-30" target="-9mjrlD3U77bwaLZREmP-149" edge="1">
          <mxGeometry width="50" height="50" relative="1" as="geometry">
            <mxPoint x="440" y="1900" as="sourcePoint" />
            <mxPoint x="490" y="1850" as="targetPoint" />
            <Array as="points">
              <mxPoint x="340" y="2050" />
              <mxPoint x="414" y="2050" />
            </Array>
          </mxGeometry>
        </mxCell>
        <mxCell id="-9mjrlD3U77bwaLZREmP-152" value="" style="endArrow=none;html=1;rounded=0;exitX=0.5;exitY=1;exitDx=0;exitDy=0;entryX=0.5;entryY=0;entryDx=0;entryDy=0;" parent="1" source="-9mjrlD3U77bwaLZREmP-80" target="-9mjrlD3U77bwaLZREmP-149" edge="1">
          <mxGeometry width="50" height="50" relative="1" as="geometry">
            <mxPoint x="440" y="1900" as="sourcePoint" />
            <mxPoint x="464" y="2185" as="targetPoint" />
            <Array as="points">
              <mxPoint x="580" y="2070" />
              <mxPoint x="414" y="2070" />
            </Array>
          </mxGeometry>
        </mxCell>
        <mxCell id="-9mjrlD3U77bwaLZREmP-153" value="1" style="text;html=1;align=center;verticalAlign=middle;resizable=0;points=[];autosize=1;strokeColor=none;fillColor=none;fontSize=16;" parent="1" vertex="1">
          <mxGeometry x="150" y="2000" width="30" height="30" as="geometry" />
        </mxCell>
        <mxCell id="-9mjrlD3U77bwaLZREmP-154" value="М" style="text;html=1;align=center;verticalAlign=middle;resizable=0;points=[];autosize=1;strokeColor=none;fillColor=none;fontSize=16;" parent="1" vertex="1">
          <mxGeometry x="335" y="2000" width="40" height="30" as="geometry" />
        </mxCell>
        <mxCell id="-9mjrlD3U77bwaLZREmP-155" value="1" style="text;html=1;align=center;verticalAlign=middle;resizable=0;points=[];autosize=1;strokeColor=none;fillColor=none;fontSize=16;" parent="1" vertex="1">
          <mxGeometry x="580" y="2000" width="30" height="30" as="geometry" />
        </mxCell>
        <mxCell id="-9mjrlD3U77bwaLZREmP-156" value="М" style="text;html=1;align=center;verticalAlign=middle;resizable=0;points=[];autosize=1;strokeColor=none;fillColor=none;fontSize=16;" parent="1" vertex="1">
          <mxGeometry x="409" y="2160" width="40" height="30" as="geometry" />
        </mxCell>
        <mxCell id="-9mjrlD3U77bwaLZREmP-157" value="" style="endArrow=none;html=1;rounded=0;exitX=0.5;exitY=1;exitDx=0;exitDy=0;entryX=0;entryY=0.5;entryDx=0;entryDy=0;" parent="1" source="-9mjrlD3U77bwaLZREmP-149" target="-9mjrlD3U77bwaLZREmP-93" edge="1">
          <mxGeometry width="50" height="50" relative="1" as="geometry">
            <mxPoint x="440" y="2140" as="sourcePoint" />
            <mxPoint x="490" y="2090" as="targetPoint" />
            <Array as="points">
              <mxPoint x="414" y="2510" />
            </Array>
          </mxGeometry>
        </mxCell>
        <mxCell id="-9mjrlD3U77bwaLZREmP-158" value="М" style="text;html=1;align=center;verticalAlign=middle;resizable=0;points=[];autosize=1;strokeColor=none;fillColor=none;fontSize=16;" parent="1" vertex="1">
          <mxGeometry x="560" y="2470" width="40" height="30" as="geometry" />
        </mxCell>
        <mxCell id="-9mjrlD3U77bwaLZREmP-159" value="1" style="text;html=1;align=center;verticalAlign=middle;resizable=0;points=[];autosize=1;strokeColor=none;fillColor=none;fontSize=16;" parent="1" vertex="1">
          <mxGeometry x="414" y="2270" width="30" height="30" as="geometry" />
        </mxCell>
        <mxCell id="-9mjrlD3U77bwaLZREmP-160" value="" style="endArrow=none;html=1;rounded=0;entryX=0.25;entryY=1;entryDx=0;entryDy=0;" parent="1" target="-9mjrlD3U77bwaLZREmP-149" edge="1">
          <mxGeometry width="50" height="50" relative="1" as="geometry">
            <mxPoint x="379" y="2640" as="sourcePoint" />
            <mxPoint x="490" y="2590" as="targetPoint" />
          </mxGeometry>
        </mxCell>
        <mxCell id="-9mjrlD3U77bwaLZREmP-161" value="&lt;font style=&quot;font-size: 16px;&quot;&gt;Включает&lt;/font&gt;" style="rhombus;whiteSpace=wrap;html=1;" parent="1" vertex="1">
          <mxGeometry x="314" y="2640" width="130" height="110" as="geometry" />
        </mxCell>
        <mxCell id="-9mjrlD3U77bwaLZREmP-162" value="" style="endArrow=none;html=1;rounded=0;entryX=0.5;entryY=1;entryDx=0;entryDy=0;exitX=0.5;exitY=0;exitDx=0;exitDy=0;" parent="1" source="-9mjrlD3U77bwaLZREmP-113" target="-9mjrlD3U77bwaLZREmP-161" edge="1">
          <mxGeometry width="50" height="50" relative="1" as="geometry">
            <mxPoint x="440" y="2640" as="sourcePoint" />
            <mxPoint x="490" y="2590" as="targetPoint" />
          </mxGeometry>
        </mxCell>
        <mxCell id="-9mjrlD3U77bwaLZREmP-164" value="1" style="text;html=1;align=center;verticalAlign=middle;resizable=0;points=[];autosize=1;strokeColor=none;fillColor=none;fontSize=16;" parent="1" vertex="1">
          <mxGeometry x="344" y="2280" width="30" height="30" as="geometry" />
        </mxCell>
        <mxCell id="-9mjrlD3U77bwaLZREmP-165" value="1" style="text;html=1;align=center;verticalAlign=middle;resizable=0;points=[];autosize=1;strokeColor=none;fillColor=none;fontSize=16;" parent="1" vertex="1">
          <mxGeometry x="344" y="2930" width="30" height="30" as="geometry" />
        </mxCell>
        <mxCell id="-9mjrlD3U77bwaLZREmP-167" value="" style="endArrow=none;html=1;rounded=0;exitX=1;exitY=0.5;exitDx=0;exitDy=0;entryX=0;entryY=0.5;entryDx=0;entryDy=0;" parent="1" source="-9mjrlD3U77bwaLZREmP-60" target="-9mjrlD3U77bwaLZREmP-49" edge="1">
          <mxGeometry width="50" height="50" relative="1" as="geometry">
            <mxPoint x="440" y="3130" as="sourcePoint" />
            <mxPoint x="490" y="3080" as="targetPoint" />
            <Array as="points">
              <mxPoint x="440" y="3535" />
              <mxPoint x="440" y="3323" />
            </Array>
          </mxGeometry>
        </mxCell>
        <mxCell id="-9mjrlD3U77bwaLZREmP-168" value="М" style="text;html=1;align=center;verticalAlign=middle;resizable=0;points=[];autosize=1;strokeColor=none;fillColor=none;fontSize=16;" parent="1" vertex="1">
          <mxGeometry x="600" y="3293" width="40" height="30" as="geometry" />
        </mxCell>
        <mxCell id="-9mjrlD3U77bwaLZREmP-169" value="1" style="text;html=1;align=center;verticalAlign=middle;resizable=0;points=[];autosize=1;strokeColor=none;fillColor=none;fontSize=16;" parent="1" vertex="1">
          <mxGeometry x="250" y="3505" width="30" height="30" as="geometry" />
        </mxCell>
        <mxCell id="-9mjrlD3U77bwaLZREmP-171" value="" style="endArrow=none;html=1;rounded=0;entryX=0.5;entryY=1;entryDx=0;entryDy=0;" parent="1" target="-9mjrlD3U77bwaLZREmP-49" edge="1">
          <mxGeometry width="50" height="50" relative="1" as="geometry">
            <mxPoint x="593.83" y="3870" as="sourcePoint" />
            <mxPoint x="700" y="3450" as="targetPoint" />
            <Array as="points">
              <mxPoint x="594" y="3450" />
              <mxPoint x="700" y="3450" />
            </Array>
          </mxGeometry>
        </mxCell>
        <mxCell id="-9mjrlD3U77bwaLZREmP-173" value="1" style="text;html=1;align=center;verticalAlign=middle;resizable=0;points=[];autosize=1;strokeColor=none;fillColor=none;fontSize=16;" parent="1" vertex="1">
          <mxGeometry x="670" y="3353" width="30" height="30" as="geometry" />
        </mxCell>
        <mxCell id="-9mjrlD3U77bwaLZREmP-174" value="1" style="text;html=1;align=center;verticalAlign=middle;resizable=0;points=[];autosize=1;strokeColor=none;fillColor=none;fontSize=16;" parent="1" vertex="1">
          <mxGeometry x="548.5" y="3840" width="30" height="30" as="geometry" />
        </mxCell>
        <mxCell id="-9mjrlD3U77bwaLZREmP-178" value="&lt;font style=&quot;font-size: 16px;&quot;&gt;Включает&lt;/font&gt;" style="rhombus;whiteSpace=wrap;html=1;" parent="1" vertex="1">
          <mxGeometry x="528.5" y="3630" width="130" height="110" as="geometry" />
        </mxCell>
        <mxCell id="-9mjrlD3U77bwaLZREmP-179" value="" style="endArrow=none;html=1;rounded=0;entryX=0.25;entryY=1;entryDx=0;entryDy=0;entryPerimeter=0;" parent="1" target="-9mjrlD3U77bwaLZREmP-93" edge="1">
          <mxGeometry width="50" height="50" relative="1" as="geometry">
            <mxPoint x="700" y="3290" as="sourcePoint" />
            <mxPoint x="640" y="2630" as="targetPoint" />
          </mxGeometry>
        </mxCell>
        <mxCell id="-9mjrlD3U77bwaLZREmP-180" value="М" style="text;html=1;align=center;verticalAlign=middle;resizable=0;points=[];autosize=1;strokeColor=none;fillColor=none;fontSize=16;" parent="1" vertex="1">
          <mxGeometry x="660" y="2540" width="40" height="30" as="geometry" />
        </mxCell>
        <mxCell id="-9mjrlD3U77bwaLZREmP-181" value="1" style="text;html=1;align=center;verticalAlign=middle;resizable=0;points=[];autosize=1;strokeColor=none;fillColor=none;fontSize=16;" parent="1" vertex="1">
          <mxGeometry x="670" y="3255" width="30" height="30" as="geometry" />
        </mxCell>
        <mxCell id="b85Ar9CeMIhIgzGbZL3y-1" value="&lt;font style=&quot;font-size: 14px;&quot;&gt;&lt;font style=&quot;font-size: 14px;&quot;&gt;Номер товара&lt;/font&gt;&lt;/font&gt;" style="ellipse;whiteSpace=wrap;html=1;direction=east;flipH=1;flipV=0;" vertex="1" parent="1">
          <mxGeometry x="740" y="3730" width="140" height="60" as="geometry" />
        </mxCell>
        <mxCell id="b85Ar9CeMIhIgzGbZL3y-3" value="" style="endArrow=none;html=1;rounded=0;exitX=0;exitY=0.5;exitDx=0;exitDy=0;entryX=0.5;entryY=0;entryDx=0;entryDy=0;" edge="1" parent="1" source="b85Ar9CeMIhIgzGbZL3y-1" target="-9mjrlD3U77bwaLZREmP-104">
          <mxGeometry width="50" height="50" relative="1" as="geometry">
            <mxPoint x="750" y="3720" as="sourcePoint" />
            <mxPoint x="604" y="3887" as="targetPoint" />
          </mxGeometry>
        </mxCell>
      </root>
    </mxGraphModel>
  </diagram>
</mxfile>
